<svg width="1200" height="640" viewBox="0 0 1200 640" fill="none" xmlns="http://www.w3.org/2000/svg" role="img" aria-labelledby="title desc">
  <title id="title">Executive clarity workflow map</title>
  <desc id="desc">Messy input becomes executive insight, action, and the full PromptAnatomy system.</desc>
  <rect width="1200" height="640" rx="48" fill="#07111F"/>
  <circle cx="170" cy="128" r="180" fill="#22D3EE" fill-opacity="0.16"/>
  <circle cx="1010" cy="520" r="220" fill="#6366F1" fill-opacity="0.18"/>
  <g fill="#F8FAFC" font-family="Inter, Arial, sans-serif" font-weight="800">
    <text x="82" y="152" font-size="34">Messy input</text>
    <text x="362" y="152" font-size="34">Clarity check</text>
    <text x="672" y="152" font-size="34">Insight</text>
    <text x="914" y="152" font-size="34">Full system</text>
  </g>
  <g stroke="#22D3EE" stroke-width="4" stroke-linecap="round">
    <path d="M282 132H340"/>
    <path d="M596 132H650"/>
    <path d="M802 132H886"/>
  </g>
  <g fill="#94A3B8" font-family="Inter, Arial, sans-serif" font-size="24">
    <text x="82" y="220">notes, reports,</text>
    <text x="82" y="254">emails, decisions</text>
    <text x="362" y="220">decision, risks,</text>
    <text x="362" y="254">questions, action</text>
    <text x="672" y="220">clear next step</text>
    <text x="672" y="254">for the leader</text>
    <text x="914" y="220">team workflow</text>
    <text x="914" y="254">and course</text>
  </g>
  <g fill="#0F172A" stroke="#334155" stroke-width="2">
    <rect x="70" y="330" width="230" height="150" rx="28"/>
    <rect x="350" y="330" width="230" height="150" rx="28"/>
    <rect x="630" y="330" width="230" height="150" rx="28"/>
    <rect x="910" y="330" width="230" height="150" rx="28"/>
  </g>
  <g fill="#22D3EE" font-family="Inter, Arial, sans-serif" font-size="22" font-weight="800">
    <text x="112" y="414">Paste context</text>
    <text x="392" y="414">Choose goal</text>
    <text x="672" y="414">Get clarity</text>
    <text x="952" y="414">Install system</text>
  </g>
</svg>
